<?xml version="1.0" standalone="no"?>
<!DOCTYPE svg PUBLIC "-//W3C//DTD SVG 1.1//EN" "http://www.w3.org/Graphics/SVG/1.1/DTD/svg11.dtd" >
<svg xmlns="http://www.w3.org/2000/svg" xmlns:xlink="http://www.w3.org/1999/xlink" version="1.1">
<metadata>
Created by FontForge 20201107 at Sun May 26 21:41:41 2013
 By 
Copyright Andrew McCluskey 2013
</metadata>
<defs>
<font id="DragonSlapper" horiz-adv-x="576" >
  <font-face 
    font-family="DragonSlapper"
    font-weight="400"
    font-stretch="normal"
    units-per-em="1024"
    panose-1="0 0 4 0 0 0 0 0 0 0"
    ascent="819"
    descent="-205"
    x-height="640"
    cap-height="768"
    bbox="-256 -320 832 1024"
    underline-thickness="51"
    underline-position="77"
    unicode-range="U+0020-201D"
  />
<missing-glyph horiz-adv-x="448" 
d="M320 90v102h-102v-102h102zM421 209v102h-203v-102h203zM320 328v102h-102v-102h102zM421 447v101h-101q-43 0 -72 -29q-30 -31 -30 -72h203zM0 0v640h640v-640h-640z" />
    <glyph glyph-name=".notdef" horiz-adv-x="448" 
d="M320 90v102h-102v-102h102zM421 209v102h-203v-102h203zM320 328v102h-102v-102h102zM421 447v101h-101q-43 0 -72 -29q-30 -31 -30 -72h203zM0 0v640h640v-640h-640z" />
    <glyph glyph-name="glyph1" horiz-adv-x="0" 
 />
    <glyph glyph-name="glyph2" horiz-adv-x="256" 
 />
    <glyph glyph-name="space" unicode=" " horiz-adv-x="256" 
 />
    <glyph glyph-name="exclam" unicode="!" horiz-adv-x="192" 
d="M0 0v128h128v-128h-128zM0 192v576h128v-576h-128z" />
    <glyph glyph-name="quotedbl" unicode="&#x22;" horiz-adv-x="256" 
d="M64 640l-128 128h384l-128 -128l-64 64l-64 -64v0z" />
    <glyph glyph-name="numbersign" unicode="#" horiz-adv-x="832" 
d="M416 256l64 128h-96l-64 -128h96zM32 0l64 128h-96v128h160l64 128h-96v128h160l64 128h160l-64 -128h96l64 128h160l-64 -128h64v-128h-128l-64 -128h64v-128h-128l-64 -128h-160l64 128h-96l-64 -128h-160z" />
    <glyph glyph-name="dollar" unicode="$" horiz-adv-x="512" 
d="M128 -64v64l-128 128l128 128v-64q0 -27 18 -46q19 -18 46 -18h64l32 32l-288 288v64l128 128v64h64v-64h64v64h64v-64l128 -128l-128 -128v64q0 26 -19 45t-45 19h-64l-32 -32l288 -288v-64l-128 -128v-64h-64v64h-64v-64h-64z" />
    <glyph glyph-name="percent" unicode="%" horiz-adv-x="704" 
d="M512 -64l64 64l-64 64l-64 -64l64 -64v0zM512 -256l-256 256l256 256l256 -256l-256 -256v0zM128 704l64 64l-64 64l-64 -64l64 -64v0zM-32 -128l512 1024h160l-512 -1024h-160zM128 512l-256 256l256 256l256 -256l-256 -256v0z" />
    <glyph glyph-name="ampersand" unicode="&#x26;" horiz-adv-x="768" 
d="M384 0v256h-256l256 -256v0zM640 -192l-32 64h-288l-384 384v128l384 384h256l-96 -192v64h-96l-256 -256h256v64l128 64v-128h128l64 64l-32 -64v0l-96 -192l-32 64h-32v-256h128l128 64l-32 -64v0l-96 -192v0z" />
    <glyph glyph-name="quotesingle" unicode="'" horiz-adv-x="128" 
d="M64 640l-128 128h256l-128 -128v0z" />
    <glyph glyph-name="parenleft" unicode="(" horiz-adv-x="384" 
d="M192 -128l-192 192v512l192 192h128v-128h-64l-128 -128v-384l128 -128h64v-128h-128z" />
    <glyph glyph-name="parenright" unicode=")" horiz-adv-x="384" 
d="M0 -128v128h64l128 128v384l-128 128h-64v128h128l192 -192v-512l-192 -192h-128z" />
    <glyph glyph-name="asterisk" unicode="*" horiz-adv-x="320" 
d="M128 384l-64 64h-64l48 96l-48 96h64l64 64l64 -64h64l-48 -96l48 -96h-64l-64 -64v0z" />
    <glyph glyph-name="plus" unicode="+" horiz-adv-x="448" 
d="M128 128v128h-128v128h128v128h128v-128h128v-128h-128v-128h-128z" />
    <glyph glyph-name="comma" unicode="," horiz-adv-x="192" 
d="M0 -128v256h128v-128l-128 -128v0z" />
    <glyph glyph-name="hyphen" unicode="-" horiz-adv-x="448" 
d="M0 256v128h384v-128h-384z" />
    <glyph glyph-name="period" unicode="." horiz-adv-x="192" 
d="M0 0v128h128v-128h-128z" />
    <glyph glyph-name="slash" unicode="/" 
d="M-32 -128l448 896h160l-448 -896h-160z" />
    <glyph glyph-name="zero" unicode="0" horiz-adv-x="832" 
d="M384 64l256 256l-256 256l-256 -256l256 -256v0zM384 -128l-448 448l448 448l448 -448l-448 -448v0z" />
    <glyph glyph-name="one" unicode="1" horiz-adv-x="320" 
d="M64 -128q26 0 45 19t19 45v576l-128 -128v192l256 256h64q-27 0 -46 -19q-18 -19 -18 -45v-832q0 -26 18 -45q19 -19 46 -19h-256z" />
    <glyph glyph-name="two" unicode="2" horiz-adv-x="640" 
d="M0 -128v256l448 448l-64 64h-192q-27 0 -46 -19q-18 -19 -18 -45v-64l-128 128l128 128h320l128 -128v-128l-448 -448v-64h256q26 0 45 18q19 19 19 46v64l128 -128v-128h-576z" />
    <glyph glyph-name="three" unicode="3" horiz-adv-x="704" 
d="M64 -192l-96 192v0l-32 63v0l128 -63h320l64 64l-192 192h-96l-32 -64l-96 192h-1l-31 63v0l64 -63h192l192 192l-64 64h-288v-64l-96 192h448l192 -192l-256 -256l256 -256l-192 -192h-352l-32 -64v0z" />
    <glyph glyph-name="four" unicode="4" horiz-adv-x="640" 
d="M320 384v128l-128 -128h128zM256 -128q26 0 45 19t19 45v320h-448l576 576v-448h64q26 0 45 18q19 19 19 46v-256q0 26 -19 45t-45 19h-64v-320q0 -26 18 -45q19 -19 46 -19h-256z" />
    <glyph glyph-name="five" unicode="5" horiz-adv-x="640" 
d="M128 -128l-128 128l128 128v-64q0 -27 18 -46q19 -18 46 -18h192l64 64l-448 448v256h576v-128l-128 -128v64q0 26 -19 45t-45 19h-256v-64l448 -448v-128l-128 -128h-320z" />
    <glyph glyph-name="six" unicode="6" horiz-adv-x="640" 
d="M384 0l64 64v128l-64 64h-256v-192q0 -27 18 -46q19 -18 46 -18h192zM128 -128l-128 128v640l128 128h320l128 -128l-128 -128v64q0 26 -19 45t-45 19h-192l-64 -64v-192h320l128 -128v-256l-128 -128h-320z" />
    <glyph glyph-name="seven" unicode="7" 
d="M-32 -128l384 768h-256l-32 -64l-96 192v0l-32 63v0l64 -63h576l-448 -896h-160z" />
    <glyph glyph-name="eight" unicode="8" horiz-adv-x="640" 
d="M384 0l64 64l-160 160l-160 -160l64 -64h192zM288 416l160 160l-64 64h-192l-64 -64l160 -160v0zM128 -128l-192 192l256 256l-256 256l192 192h320l192 -192l-256 -256l256 -256l-192 -192h-320z" />
    <glyph glyph-name="nine" unicode="9" horiz-adv-x="640" 
d="M448 384v192q0 26 -19 45t-45 19h-192l-64 -64v-128l64 -64h256zM128 -128l-128 128l128 128v-64q0 -27 18 -46q19 -18 46 -18h192l64 64v192h-320l-128 128v256l128 128h320l128 -128v-640l-128 -128h-320z" />
    <glyph glyph-name="colon" unicode=":" horiz-adv-x="192" 
d="M0 128v128h128v-128h-128zM0 384v128h128v-128h-128z" />
    <glyph glyph-name="semicolon" unicode=";" horiz-adv-x="192" 
d="M0 0v256h128v-128l-128 -128v0zM0 384v128h128v-128h-128z" />
    <glyph glyph-name="less" unicode="&#x3c;" horiz-adv-x="384" 
d="M320 0l-320 320l320 320v-192l-128 -128l128 -128v-192v0z" />
    <glyph glyph-name="equal" unicode="=" horiz-adv-x="448" 
d="M0 128v128h384v-128h-384zM0 384v128h384v-128h-384z" />
    <glyph glyph-name="greater" unicode="&#x3e;" horiz-adv-x="384" 
d="M0 0v192l128 128l-128 128v192l320 -320l-320 -320v0z" />
    <glyph glyph-name="question" unicode="?" horiz-adv-x="640" 
d="M0 0v128h128v-128h-128zM0 192v192h384l64 64v128l-64 64h-192q-27 0 -46 -19q-18 -19 -18 -45l-128 -128v192l128 128h320l128 -128v-256l-128 -128h-320v-64h-128z" />
    <glyph glyph-name="at" unicode="@" horiz-adv-x="768" 
d="M384 -128l-448 448l448 448l448 -448l-128 -128h-384v128h320l-256 256l-256 -256l256 -256v-192v0z" />
    <glyph glyph-name="A" unicode="A" horiz-adv-x="704" 
d="M106 85l316 158l-118 237l-198 -395v0zM-160 -128l373 746l-149 150h256l448 -896h-256l64 64l-90 179l-486 -243h-160z" />
    <glyph glyph-name="B" unicode="B" 
d="M320 0l64 64l-256 256l256 256l-64 64h-192v-640h192zM-64 -128q27 0 46 19q18 19 18 45v768q0 26 -18 45q-19 19 -46 19h192v-64q0 26 18 45q19 19 46 19h192l192 -192l-256 -256l256 -256l-192 -192h-192q-27 0 -46 19q-18 19 -18 45v-64h-192z" />
    <glyph glyph-name="C" unicode="C" horiz-adv-x="640" 
d="M384 -128l-384 384v128l384 384h256l-96 -192v64h-96l-320 -320l320 -320h128l128 64l-32 -64v0l-64 -128h-224z" />
    <glyph glyph-name="D" unicode="D" horiz-adv-x="640" 
d="M-128 -256l-128 128h256l128 128h-128q26 0 45 18q19 19 19 46v320q0 26 -19 45t-45 19l192 192v-576l320 320l-256 256h-512l192 192q0 -27 19 -46q19 -18 45 -18h320l384 -384l-640 -640h-192z" />
    <glyph glyph-name="E" unicode="E" horiz-adv-x="640" 
d="M512 -192l-32 64h-160l-384 384v128l384 384h256l-96 -192v64h-96l-256 -256h384l64 64l-32 -64v0l-96 -192l-32 64h-288l256 -256h128l128 64l-32 -64v0l-96 -192v0z" />
    <glyph glyph-name="F" unicode="F" horiz-adv-x="512" 
d="M-64 -128q27 0 46 19q18 19 18 45v768q0 26 -18 45q-19 19 -46 19h544l64 -128v0l32 -64l-128 64h-320v-256h320l64 64l-32 -64v0l-96 -192l-32 64h-224v-320q0 -26 18 -45q19 -19 46 -19h-256z" />
    <glyph glyph-name="G" unicode="G" horiz-adv-x="704" 
d="M384 -128l-384 384v128l384 384h256l-96 -192v64h-96l-320 -320l320 -320h64v256h-128l-128 128h384v-512h-256z" />
    <glyph glyph-name="H" unicode="H" horiz-adv-x="640" 
d="M-64 -128q27 0 46 19q18 19 18 45v704q0 26 -18 45q-19 19 -46 19h256q-27 0 -46 -19q-18 -19 -18 -45v-256h320v320q0 26 -19 45t-45 19h256q-27 0 -46 -19q-18 -19 -18 -45v-704q0 -26 18 -45q19 -19 46 -19h-256q26 0 45 19t19 45v256h-320v-320q0 -26 18 -45
q19 -19 46 -19h-256z" />
    <glyph glyph-name="I" unicode="I" horiz-adv-x="192" 
d="M-64 -128q27 0 46 19q18 19 18 45v768q0 26 -18 45q-19 19 -46 19h256q-27 0 -46 -19q-18 -19 -18 -45v-768q0 -26 18 -45q19 -19 46 -19h-256z" />
    <glyph glyph-name="J" unicode="J" 
d="M-64 -320l-64 128l512 512v320h-256l-128 -64l31 64h1l64 128h480q-27 0 -46 -19q-18 -19 -18 -45v-448l-576 -576v0z" />
    <glyph glyph-name="K" unicode="K" 
d="M384 -192q26 0 45 19t19 45l-320 320v-320h-192q27 0 46 19q18 19 18 45v704q0 26 -18 45q-19 19 -46 19h192v-256l256 256q0 26 -19 45t-45 19h320l-448 -448l512 -512h-320z" />
    <glyph glyph-name="L" unicode="L" horiz-adv-x="512" 
d="M-64 -128q27 0 46 19q18 19 18 45v768q0 26 -18 45q-19 19 -46 19h256q-27 0 -46 -19q-18 -19 -18 -45v-704h256l128 64l-32 -64v0l-64 -128h-480z" />
    <glyph glyph-name="M" unicode="M" horiz-adv-x="704" 
d="M-64 -128q27 0 46 19q18 19 18 45v768q0 26 -18 45q-19 19 -46 19h288l-32 -64l128 -256l128 256l-32 64h288q-27 0 -46 -19q-18 -19 -18 -45v-768q0 -26 18 -45q19 -19 46 -19h-256q26 0 45 19t19 45v576l-192 -384l-192 384v-576q0 -26 18 -45q19 -19 46 -19h-256z" />
    <glyph glyph-name="N" unicode="N" horiz-adv-x="640" 
d="M448 -128l-320 640v-512q0 -26 18 -45q19 -19 46 -19h-256q27 0 46 19q18 19 18 45v832h128l320 -640v512q0 26 -19 45t-45 19h256q-27 0 -46 -19q-18 -19 -18 -45v-832h-128z" />
    <glyph glyph-name="O" unicode="O" horiz-adv-x="832" 
d="M384 64l256 256l-256 256l-256 -256l256 -256v0zM384 -128l-448 448l448 448l448 -448l-448 -448v0z" />
    <glyph glyph-name="P" unicode="P" horiz-adv-x="512" 
d="M192 384l192 192l-64 64h-192v-256h64zM-64 -128q27 0 46 19q18 19 18 45v768q0 26 -18 45q-19 19 -46 19h192v-64q0 26 18 45q19 19 46 19h192l192 -192l-320 -320h-128v-320q0 -26 18 -45q19 -19 46 -19h-256z" />
    <glyph glyph-name="Q" unicode="Q" horiz-adv-x="832" 
d="M384 64l256 256l-256 256l-256 -256l256 -256v0zM256 -320l64 64v192l-384 384l448 448l448 -448l-384 -384v-96l64 -32l-192 -96v0l-64 -32v0z" />
    <glyph glyph-name="R" unicode="R" 
d="M128 320l256 256l-64 64h-192v-320v0zM704 -320l-576 576v-320q0 -26 18 -45q19 -19 46 -19h-256q27 0 46 19q18 19 18 45v768q0 26 -18 45q-19 19 -46 19h192v-64q0 26 18 45q19 19 46 19h192l192 -192l-288 -288l480 -480l-64 -128v0z" />
    <glyph glyph-name="S" unicode="S" horiz-adv-x="640" 
d="M128 -128l-128 128l128 128v-64q0 -27 18 -46q19 -18 46 -18h192l64 64l-448 448v128l128 128h320l128 -128l-128 -128v64q0 26 -19 45t-45 19h-192l-64 -64l448 -448v-128l-128 -128h-320z" />
    <glyph glyph-name="T" unicode="T" 
d="M128 -128q26 0 45 19t19 45v704h-128l-128 -64l32 64v0l64 128h448l64 -128v0l32 -64l-128 64h-128v-704q0 -26 18 -45q19 -19 46 -19h-256z" />
    <glyph glyph-name="U" unicode="U" horiz-adv-x="640" 
d="M192 -128l-192 192v640q0 26 -18 45q-19 19 -46 19h192v-640l128 -128h192v768h192q-27 0 -46 -19q-18 -19 -18 -45v-832h-384z" />
    <glyph glyph-name="V" unicode="V" horiz-adv-x="768" 
d="M384 -128l-448 896h256q-27 0 -46 -19q-18 -19 -18 -45l256 -512l256 512q0 26 -19 45t-45 19h256l-448 -896v0z" />
    <glyph glyph-name="W" unicode="W" horiz-adv-x="704" 
d="M-64 -128q27 0 46 19q18 19 18 45v768q0 26 -18 45q-19 19 -46 19h256q-27 0 -46 -19q-18 -19 -18 -45v-576l192 384l192 -384v576q0 26 -19 45t-45 19h256q-27 0 -46 -19q-18 -19 -18 -45v-768q0 -26 18 -45q19 -19 46 -19h-288l32 64l-128 256l-128 -256l32 -64h-288z
" />
    <glyph glyph-name="X" unicode="X" horiz-adv-x="512" 
d="M-64 -128l240 480l-208 416h160l128 -256l128 256h160l-208 -416l240 -480h-256q26 0 45 19t19 45l-128 256l-128 -256q0 -26 18 -45q19 -19 46 -19h-256z" />
    <glyph glyph-name="Y" unicode="Y" 
d="M128 -128q26 0 45 19t19 45v320l-256 512h256q-27 0 -46 -19q-18 -19 -18 -45l128 -256l128 256q0 26 -19 45t-45 19h256l-256 -512v-320q0 -26 18 -45q19 -19 46 -19h-256z" />
    <glyph glyph-name="Z" unicode="Z" 
d="M512 -192l-32 64h-512l384 768h-256l-32 -64l-96 192v0l-32 63v0l64 -63h576l-384 -768h384l64 64l-32 -64v0l-96 -192v0z" />
    <glyph glyph-name="bracketleft" unicode="[" horiz-adv-x="384" 
d="M0 -128v896h320v-128h-192v-640h192v-128h-320z" />
    <glyph glyph-name="backslash" unicode="\" 
d="M384 -128l-448 896h160l448 -896h-160z" />
    <glyph glyph-name="bracketright" unicode="]" horiz-adv-x="384" 
d="M0 -128v128h192v640h-192v128h320v-896h-320z" />
    <glyph glyph-name="asciicircum" unicode="^" 
d="M0 704l256 256l256 -256h-192l-64 64l-64 -64h-192z" />
    <glyph glyph-name="underscore" unicode="_" horiz-adv-x="512" 
d="M0 0v128h448v-128h-448z" />
    <glyph glyph-name="grave" unicode="`" horiz-adv-x="128" 
d="M64 640l-128 128h256l-128 -128v0z" />
    <glyph glyph-name="a" unicode="a" horiz-adv-x="512" 
d="M170 213l111 55l-41 84l-70 -139v0zM-96 0l245 490l-149 150h256l320 -640h-256l64 64l-39 76l-281 -140h-160z" />
    <glyph glyph-name="b" unicode="b" horiz-adv-x="512" 
d="M320 128l-192 192l192 192h-192v-384h192zM-64 0q27 0 46 18q18 19 18 46v512q0 26 -18 45q-19 19 -46 19h192v-64q0 26 18 45q19 19 46 19h192l128 -128l-192 -192l192 -192l-128 -128h-192q-27 0 -46 18q-18 19 -18 46v-64h-192z" />
    <glyph glyph-name="c" unicode="c" 
d="M256 0l-256 256v128l256 256h256l-96 -192v64h-96l-192 -192l192 -192h128l128 64l-32 -64v0l-64 -128h-224z" />
    <glyph glyph-name="d" unicode="d" horiz-adv-x="512" 
d="M192 128l192 192l-192 192h-64v-384h64zM-64 0q27 0 46 18q18 19 18 46v512q0 26 -18 45q-19 19 -46 19h320l256 -256v-128l-256 -256h-320z" />
    <glyph glyph-name="e" unicode="e" horiz-adv-x="512" 
d="M384 -64l-32 64h-160l-256 256v128l256 256h256l-96 -192v64h-96l-128 -128h256l64 64l-32 -64v0l-96 -192l-32 64h-160l128 -128h128l128 64l-32 -64v0l-96 -192v0z" />
    <glyph glyph-name="f" unicode="f" horiz-adv-x="448" 
d="M-64 0q27 0 46 18q18 19 18 46v512q0 26 -18 45q-19 19 -46 19h416l64 -128v0l32 -64l-128 64h-192v-128h192l64 64l-32 -64v0l-96 -192l-32 64h-96v-192q0 -27 18 -46q19 -18 46 -18h-256z" />
    <glyph glyph-name="g" unicode="g" 
d="M256 0l-256 256v128l256 256h256l-96 -192v64h-96l-192 -192l192 -192h64v128l-128 128h256v-384h-256z" />
    <glyph glyph-name="h" unicode="h" horiz-adv-x="512" 
d="M-64 0q27 0 46 18q18 19 18 46v512q0 26 -18 45q-19 19 -46 19h256q-27 0 -46 -19q-18 -19 -18 -45v-192h192v192q0 26 -19 45t-45 19h256q-27 0 -46 -19q-18 -19 -18 -45v-512q0 -27 18 -46q19 -18 46 -18h-256q26 0 45 18q19 19 19 46v192h-192v-192q0 -27 18 -46
q19 -18 46 -18h-256z" />
    <glyph glyph-name="i" unicode="i" horiz-adv-x="192" 
d="M-64 0q27 0 46 18q18 19 18 46v512q0 26 -18 45q-19 19 -46 19h256q-27 0 -46 -19q-18 -19 -18 -45v-512q0 -27 18 -46q19 -18 46 -18h-256z" />
    <glyph glyph-name="j" unicode="j" horiz-adv-x="448" 
d="M-64 -192l-64 128l384 384v192h-128l-128 -64l31 64h1l64 128h352q-27 0 -46 -19q-18 -19 -18 -45v-320l-448 -448v0z" />
    <glyph glyph-name="k" unicode="k" horiz-adv-x="512" 
d="M-64 0q27 0 46 18q18 19 18 46v512q0 26 -18 45q-19 19 -46 19h192v-192l128 128q0 26 -19 45t-45 19h320l-320 -320l320 -320h-320q26 0 45 18q19 19 19 46l-128 128v-192h-192z" />
    <glyph glyph-name="l" unicode="l" horiz-adv-x="384" 
d="M-64 0q27 0 46 18q18 19 18 46v512q0 26 -18 45q-19 19 -46 19h256q-27 0 -46 -19q-18 -19 -18 -45v-448h128l128 64l-32 -64v0l-64 -128h-352z" />
    <glyph glyph-name="m" unicode="m" 
d="M-64 0q27 0 46 18q18 19 18 46v512q0 26 -18 45q-19 19 -46 19h288l-32 -64l64 -128l64 128l-32 64h288q-27 0 -46 -19q-18 -19 -18 -45v-512q0 -27 18 -46q19 -18 46 -18h-256q26 0 45 18q19 19 19 46v320l-128 -256l-128 256v-320q0 -27 18 -46q19 -18 46 -18h-256z
" />
    <glyph glyph-name="n" unicode="n" horiz-adv-x="512" 
d="M-64 0q27 0 46 18q18 19 18 46v576h160l160 -320v256q0 26 -19 45t-45 19h256q-27 0 -46 -19q-18 -19 -18 -45v-576h-128l-192 384v-320q0 -27 18 -46q19 -18 46 -18h-256z" />
    <glyph glyph-name="o" unicode="o" 
d="M256 192l128 128l-128 128l-128 -128l128 -128v0zM256 0l-320 320l320 320l320 -320l-320 -320v0z" />
    <glyph glyph-name="p" unicode="p" horiz-adv-x="512" 
d="M192 384l128 128h-192v-128h64zM-64 0q27 0 46 18q18 19 18 46v512q0 26 -18 45q-19 19 -46 19h192v-64q0 26 18 45q19 19 46 19h192l128 -128l-256 -256h-128v-192q0 -27 18 -46q19 -18 46 -18h-256z" />
    <glyph glyph-name="q" unicode="q" 
d="M256 192l128 128l-128 128l-128 -128l128 -128v0zM128 -128l64 64v128l-256 256l320 320l320 -320l-256 -256v-32l64 -32l-192 -96v0l-64 -32v0z" />
    <glyph glyph-name="r" unicode="r" 
d="M128 320l192 192h-192v-192v0zM576 -192l-448 448v-192q0 -27 18 -46q19 -18 46 -18h-256q27 0 46 18q18 19 18 46v512q0 26 -18 45q-19 19 -46 19h192v-64q0 26 18 45q19 19 46 19h192l128 -128l-224 -224l352 -352l-64 -128v0z" />
    <glyph glyph-name="s" unicode="s" horiz-adv-x="512" 
d="M128 0l-128 128l128 128v-64q0 -27 18 -46q19 -18 46 -18h64l32 32l-288 288v64l128 128h192l128 -128l-128 -128v64q0 26 -19 45t-45 19h-64l-32 -32l288 -288v-64l-128 -128h-192z" />
    <glyph glyph-name="t" unicode="t" horiz-adv-x="448" 
d="M64 0q26 0 45 18q19 19 19 46v448h-64l-128 -64l32 64v0l64 128h320l64 -128v0l32 -64l-128 64h-64v-448q0 -27 18 -46q19 -18 46 -18h-256z" />
    <glyph glyph-name="u" unicode="u" horiz-adv-x="512" 
d="M192 0l-192 192v384q0 26 -18 45q-19 19 -46 19h192v-384l128 -128h64v512h192q-27 0 -46 -19q-18 -19 -18 -45v-576h-256z" />
    <glyph glyph-name="v" unicode="v" 
d="M256 0l-320 640h256q-27 0 -46 -19q-18 -19 -18 -45l128 -256l128 256q0 26 -19 45t-45 19h256l-320 -640v0z" />
    <glyph glyph-name="w" unicode="w" 
d="M-64 0q27 0 46 18q18 19 18 46v512q0 26 -18 45q-19 19 -46 19h256q-27 0 -46 -19q-18 -19 -18 -45v-320l128 256l128 -256v320q0 26 -19 45t-45 19h256q-27 0 -46 -19q-18 -19 -18 -45v-512q0 -27 18 -46q19 -18 46 -18h-288l32 64l-64 128l-64 -128l32 -64h-288z" />
    <glyph glyph-name="x" unicode="x" horiz-adv-x="448" 
d="M-64 0l176 352l-144 288h160l64 -128l64 128h160l-144 -288l176 -352h-256q26 0 45 18q19 19 19 46l-64 128l-64 -128q0 -27 18 -46q19 -18 46 -18h-256z" />
    <glyph glyph-name="y" unicode="y" horiz-adv-x="448" 
d="M64 0q26 0 45 18q19 19 19 46v192l-192 384h256q-27 0 -46 -19q-18 -19 -18 -45l64 -128l64 128q0 26 -19 45t-45 19h256l-192 -384v-192q0 -27 18 -46q19 -18 46 -18h-256z" />
    <glyph glyph-name="z" unicode="z" horiz-adv-x="512" 
d="M384 -64l-32 64h-384l256 512h-128l-32 -64l-96 192v0l-32 64l64 -64h448l-256 -512h256l64 64l-32 -64v0l-96 -192v0z" />
    <glyph glyph-name="braceleft" unicode="{" horiz-adv-x="512" 
d="M320 -128l-192 192v192h-128l128 128v192l192 192h128v-128h-64l-128 -128v-384l128 -128h64v-128h-128z" />
    <glyph glyph-name="bar" unicode="|" horiz-adv-x="192" 
d="M0 -128v896h128v-896h-128z" />
    <glyph glyph-name="braceright" unicode="}" horiz-adv-x="512" 
d="M0 -128v128h64l128 128v384l-128 128h-64v128h128l192 -192v-192h128l-128 -128v-192l-192 -192h-128z" />
    <glyph glyph-name="asciitilde" unicode="~" horiz-adv-x="448" 
d="M0 256v128h384v-128h-384z" />
    <glyph glyph-name="quoteleft" unicode="&#x2018;" horiz-adv-x="128" 
d="M64 640l-128 128h256l-128 -128v0z" />
    <glyph glyph-name="quoteright" unicode="&#x2019;" horiz-adv-x="128" 
d="M64 640l-128 128h256l-128 -128v0z" />
    <glyph glyph-name="quotedblleft" unicode="&#x201c;" horiz-adv-x="256" 
d="M64 640l-128 128h384l-128 -128l-64 64l-64 -64v0z" />
    <glyph glyph-name="quotedblright" unicode="&#x201d;" horiz-adv-x="256" 
d="M64 640l-128 128h384l-128 -128l-64 64l-64 -64v0z" />
  </font>
</defs>
</svg>
